<svg xmlns="http://www.w3.org/2000/svg" viewBox="0 0 32 32" fill="none" aria-hidden="true">
  <path fill="#ea580c" d="M8.2 22.4c-1.8-2.8-2.4-6.1-1.6-9.3.9-3.6 3.6-6.5 7-7.8.8-.3 1.6-.5 2.4-.6-.2 1.4-.1 2.9.4 4.2-1.2.5-2.2 1.4-2.8 2.6-.9 1.8-.6 4 .8 5.5l-1.1 1.1c-.7.7-.9 1.7-.5 2.6l.3.7c.4.9 1.3 1.4 2.3 1.3.5-.1 1-.3 1.4-.7l1.5-1.5c1.2 1.1 2.8 1.7 4.5 1.5 2.4-.3 4.5-1.8 5.5-4 .5-1.1.7-2.3.7-3.5 1.3.2 2.5.8 3.5 1.7 2.6 2.3 3.6 5.9 2.6 9.2-.8 2.6-2.8 4.7-5.3 5.7-3.2 1.2-6.8.6-9.5-1.5-1-.8-1.9-1.8-2.6-2.9-.7 1.1-1.6 2.1-2.6 2.9-2.7 2.1-6.3 2.7-9.5 1.5-2.5-1-4.5-3.1-5.3-5.7-1-3.3 0-6.9 2.6-9.2.7-.6 1.5-1.1 2.4-1.4-.3 1.5-.1 3.1.7 4.4Z"/>
  <path fill="#f97316" d="M14.8 8.2c.3 1.1.9 2 1.8 2.7-.5 1.3-.4 2.8.4 4 .8 1.2 2.1 1.9 3.5 1.9 1.1 0 2.1-.4 2.9-1.1.4.9.6 1.9.5 2.9-.2 1.8-1.2 3.4-2.7 4.2-2.1 1.2-4.8.8-6.5-.9-.9-.9-1.5-2.1-1.7-3.4-.5.4-1 .7-1.6.9-1.5.6-3.2.2-4.3-1-.6-.7-1-1.6-.9-2.5 0-.5.2-1 .5-1.4.8-1 2-1.6 3.3-1.7 1-.1 2 .2 2.8.8.4-1.1 1.1-2 2-2.6 1.2-.8 2.7-1 4.1-.6Z"/>
</svg>
